<svg xmlns="http://www.w3.org/2000/svg" xmlns:xlink="http://www.w3.org/1999/xlink" width="261" zoomAndPan="magnify" viewBox="0 0 195.75 323.999988" height="432" preserveAspectRatio="xMidYMid meet" version="1.0"><path fill="#1f4e79" d="M 38.886719 54.507812 C 23.3125 70.082031 34.585938 97.796875 56.496094 97.796875 C 68.753906 97.796875 82.179688 84.371094 82.179688 72.117188 C 82.179688 59.863281 68.753906 46.4375 56.496094 46.4375 C 51.253906 46.4375 43.328125 50.070312 38.886719 54.507812 M 115.925781 54.507812 C 100.355469 70.082031 111.628906 97.796875 133.539062 97.796875 C 145.792969 97.796875 159.21875 84.371094 159.21875 72.117188 C 159.21875 59.863281 145.792969 46.4375 133.539062 46.4375 C 128.296875 46.4375 120.371094 50.070312 115.925781 54.507812 M 38.886719 131.546875 C 23.3125 147.125 34.585938 174.839844 56.496094 174.839844 C 68.753906 174.839844 82.179688 161.414062 82.179688 149.160156 C 82.179688 136.90625 68.753906 123.480469 56.496094 123.480469 C 51.253906 123.480469 43.328125 127.109375 38.886719 131.546875 M 115.925781 131.546875 C 100.355469 147.125 111.628906 174.839844 133.539062 174.839844 C 145.792969 174.839844 159.21875 161.414062 159.21875 149.160156 C 159.21875 136.90625 145.792969 123.480469 133.539062 123.480469 C 128.296875 123.480469 120.371094 127.109375 115.925781 131.546875 M 38.886719 208.589844 C 23.3125 224.167969 34.585938 251.882812 56.496094 251.882812 C 68.753906 251.882812 82.179688 238.457031 82.179688 226.203125 C 82.179688 213.945312 68.753906 200.519531 56.496094 200.519531 C 51.253906 200.519531 43.328125 204.152344 38.886719 208.589844 M 115.925781 208.589844 C 100.355469 224.167969 111.628906 251.882812 133.539062 251.882812 C 145.792969 251.882812 159.21875 238.457031 159.21875 226.203125 C 159.21875 213.945312 145.792969 200.519531 133.539062 200.519531 C 128.296875 200.519531 120.371094 204.152344 115.925781 208.589844 " fill-opacity="1" fill-rule="evenodd"/></svg>